<?xml version="1.0" encoding="UTF-8"?>
<svg width="63px" height="46px" viewBox="0 0 63 46" version="1.1" xmlns="http://www.w3.org/2000/svg" xmlns:xlink="http://www.w3.org/1999/xlink">
    <!-- Generator: Sketch 44.1 (41455) - http://www.bohemiancoding.com/sketch -->
    <title>Group 2</title>
    <desc>Created with Sketch.</desc>
    <defs></defs>
    <g id="全局说明" stroke="none" stroke-width="1" fill="none" fill-rule="evenodd">
        <g id="页面加载失败" transform="translate(-155.000000, -263.000000)">
            <g id="Group-2" transform="translate(154.500000, 263.000000)">
                <g id="－0" transform="translate(0.526383, 0.656000)">
                    <path d="M50.0205241,14.0387416 C47.7949329,12.354666 46.4730164,11.5130017 43.8284283,10.212044 C44.6120659,15.2747261 45.1541196,25.3306362 33.7536273,20.9647357 C32.6612154,20.5465174 33.084742,19.8235971 33.5301622,19.9677331 C38.7815909,21.6742132 44.8581794,23.4374515 42.4242222,7.80803544 C42.323814,6.88870195 42.0203243,1.02692411 39.5395602,0.472784837 C31.186799,-1.39351442 27.2754057,4.79686354 27.2369032,4.76325671 C26.4774241,4.77968671 26.4774241,4.77968671 25.7051107,4.7752058 C17.3259263,4.72815624 11.5739661,9.06717131 11.7007976,15.6242371 C11.7868618,20.054364 10.513262,25.1058439 8.38581435,30.0311114 C8.38581435,30.0311114 6.92876183,33.3447448 4.61031193,33.2618479 C3.04454668,33.2050897 2.4179386,31.5120523 2.83844547,30.4000397 C3.0890887,29.7376118 4.19433476,29.7794336 4.01616668,28.7211919 C3.8379986,27.6629502 1.62222183,26.7936535 0.985799405,28.8391892 C0.431666476,30.6173639 -0.354235948,33.623308 1.93628082,35.363395 C5.57438244,38.12737 9.57561476,35.3282945 11.0402168,33.541158 C16.9529812,26.326892 20.1033855,28.7092428 20.7518871,29.0124511 C24.9788493,30.9877858 23.1556463,40.2393725 23.2590744,42.2669845 C23.3640123,44.3446334 26.5446146,45.6799448 28.5731638,44.2408256 C30.1064663,43.153458 31.4434818,35.9115597 33.2410166,34.1416 C37.1342911,30.3089279 44.7109643,32.3574508 46.8565307,34.1416 C49.9744721,36.7338068 50.3360929,40.2326511 52.1947786,41.7374903 C55.5565687,44.4596434 58.0252535,41.3879792 58.4178273,39.5127182 C60.814037,28.0512958 56.7652428,19.1417519 50.0205241,14.0387416" id="Fill-12" fill="#AAAAAA"></path>
                    <path d="M25.5792606,17.7895625 C25.5792606,15.2160262 23.4699317,13.1294155 20.8683758,13.1294155 C18.2668198,13.1294155 16.1582459,15.2160262 16.1582459,17.7895625 C16.1582459,20.3630988 18.2668198,22.4497095 20.8683758,22.4497095 C23.4699317,22.4497095 25.5792606,20.3630988 25.5792606,17.7895625" id="Fill-13" fill="#FFFFFF"></path>
                    <path d="M18.2013896,15.8906745 C18.2013896,15.8906745 19.9930068,19.9826669 23.8774138,17.8087959" id="Stroke-18" stroke="#AAAAAA" stroke-width="0.794999957"></path>
                    <path d="M49.3163625,5.83696213 C49.3163625,5.86945636 49.3088279,5.89320213 49.2937588,5.90819947 L49.2184134,6.0019328 L49.1958097,6.06129724 L49.1317661,6.0806688 L49.1129297,6.11378791 L49.0156085,6.13628391 L48.9396352,6.13628391 L48.7927116,6.11816213 L48.7362025,6.14003324 L48.6646243,6.11816213 L48.5629079,6.13628391 L48.536537,6.10691413 L48.5063988,6.11378791 C48.4812837,6.11941191 48.4524013,6.12191147 48.4197516,6.12191147 L48.3481734,6.11003858 L48.2238534,6.1031648 L48.1296716,6.11003858 C48.0844643,6.09316658 48.0480473,6.08441813 48.0204207,6.08441813 C48.0003285,6.08441813 47.9601443,6.09441636 47.8998679,6.11378791 L47.8169879,6.08441813 C47.8094534,6.0862928 47.7956401,6.08754258 47.7755479,6.08754258 C47.7529443,6.08754258 47.7366194,6.08316836 47.7265734,6.07317013 L47.666297,6.13628391 L47.6097879,6.15190613 C47.5896958,6.16377902 47.5702316,6.17565191 47.5513952,6.18565013 C47.5325588,6.19502347 47.5168619,6.20314702 47.5043043,6.20814613 L47.417657,6.16627858 L47.3799843,6.1031648 L47.3837516,6.0244288 L47.4101225,5.97568747 L47.459097,5.93819413 L47.4817007,5.9007008 L47.5382097,5.85133458 L47.5796497,5.84071147 L47.6028813,5.8219648 L47.6474607,5.78072213 L47.6512279,5.77259858 L47.6587625,5.76197547 L47.666297,5.7544768 C47.6688085,5.75197724 47.6706922,5.7488528 47.6719479,5.74635324 C47.6732037,5.74447858 47.6763431,5.74072924 47.6813661,5.73573013 L47.7039697,5.72385724 L47.8169879,5.63449813 L47.8282897,5.61575147 C47.8709855,5.57325902 47.9036352,5.55076302 47.9262388,5.54826347 L47.9450752,5.52201813 L47.9526097,5.49952213 L47.997817,5.45453013 L48.0241879,5.41328747 L48.0737904,5.4057888 L48.1001613,5.35329813 C48.117114,5.34829902 48.1271601,5.3383008 48.1296716,5.32330347 C48.1547867,5.2933088 48.1811576,5.27456213 48.2087843,5.26706347 L48.2125516,5.2483168 L48.2690607,5.2145728 L48.329337,5.1358368 L48.3557079,5.12083947 C48.3431504,5.12083947 48.3331043,5.12146436 48.3255697,5.12396391 L48.4498897,5.03085547 L48.4724934,4.98586347 L48.5177007,4.9558688 L48.577977,4.86151058 L48.6344861,4.82464213 L48.6457879,4.80214613 L48.577977,4.80214613 L48.5290025,4.81714347 L48.4611916,4.80589547 L48.4009152,4.82464213 L48.3632425,4.80589547 L48.2539916,4.8433888 C48.2238534,4.83339058 48.1874364,4.82839147 48.1447407,4.82839147 C48.112091,4.82839147 48.0794413,4.8321408 48.0467916,4.83901458 L48.0053516,4.8208928 L47.9262388,4.8321408 L47.8961007,4.8208928 L47.8282897,4.83901458 L47.7002025,4.81276924 L47.6028813,4.8208928 L47.5457443,4.80214613 L47.4402607,4.78277458 L47.3649152,4.80214613 L47.3084061,4.7534048 L47.2745007,4.62905191 L47.334777,4.54719147 L47.376217,4.55469013 L47.4025879,4.54344213 L47.4741661,4.53594347 L47.5306752,4.55469013 L47.5871843,4.55469013 L47.6286243,4.58093547 L47.7265734,4.58093547 L47.7755479,4.5959328 L47.8433588,4.58093547 L47.8961007,4.5959328 C47.9111697,4.59093369 47.9274946,4.58843413 47.9450752,4.58843413 C47.9601443,4.58843413 47.9752134,4.59093369 47.9902825,4.5959328 L47.9865152,4.58843413 L48.0505588,4.5959328 L48.2200861,4.5959328 L48.4423552,4.5846848 L48.4649588,4.59218347 L48.5026316,4.57656124 L48.5817443,4.57656124 L48.7173661,4.54719147 L48.785177,4.53594347 L48.8416861,4.54344213 L48.9207988,4.5171968 L48.9848425,4.52094613 C49.0024231,4.51844658 49.0174922,4.51657191 49.0300497,4.51532213 C49.0426073,4.51407236 49.0526534,4.51344747 49.0601879,4.51344747 C49.1455794,4.51344747 49.1920425,4.57093724 49.199577,4.6859168 L49.1317661,4.72341013 L49.0940934,4.76027858 L49.0375843,4.77965013 L48.9170316,4.88775591 L48.8906607,4.89587947 L48.8115479,4.99273724 C48.7688522,5.00585991 48.7324352,5.02835591 48.702297,5.06085013 L48.6872279,5.10959147 L48.6269516,5.16208213 L48.5553734,5.26331413 L48.5101661,5.28143591 L48.3519407,5.46577813 L48.2954316,5.48764924 L48.2502243,5.54826347 L48.2276207,5.55576213 C48.2150631,5.56825991 48.2018776,5.58200747 48.1880643,5.5970048 C48.174251,5.61200213 48.158554,5.62574969 48.1409734,5.63824747 L48.1070679,5.69386258 L48.0241879,5.75822613 L47.956377,5.83696213 L47.9074025,5.87757991 L47.9036352,5.8894528 L48.0317225,5.87445547 L48.0693952,5.85945813 L48.163577,5.85133458 L48.2012497,5.87070613 L48.3933807,5.85508391 L48.5742097,5.88570347 C48.5993249,5.88007947 48.614394,5.87757991 48.619417,5.87757991 C48.6344861,5.87757991 48.6495552,5.88195413 48.6646243,5.8894528 L48.7173661,5.85945813 L48.7964788,5.8894528 L48.8529879,5.87445547 L48.9283334,5.88570347 L48.9584716,5.88570347 C48.9685176,5.87570524 48.987354,5.8669568 49.0156085,5.85945813 C49.0325613,5.83696213 49.0488861,5.82321458 49.0639552,5.81821547 L49.0790243,5.7882208 L49.0865588,5.78072213 L49.0865588,5.7544768 L49.1430679,5.66761724 L49.2485516,5.67949013 C49.2937588,5.73947947 49.3163625,5.79197013 49.3163625,5.83696213" id="Fill-20" fill="#AAAAAA"></path>
                    <path d="M54.5748473,4.00441298 C54.5748473,4.04753031 54.5648013,4.07939964 54.5447091,4.09939609 L54.4442485,4.22499876 L54.4141104,4.30435964 L54.3287188,4.32998009 L54.3036037,4.37497209 L54.1730049,4.40496676 L54.0725443,4.40496676 L53.8766461,4.3799712 L53.8013007,4.40934098 L53.7058631,4.3799712 L53.5702413,4.40496676 L53.5350801,4.36434898 L53.4948958,4.37497209 C53.4616182,4.38122098 53.4226897,4.38434542 53.3793661,4.38434542 L53.2839285,4.36934809 L53.1181685,4.35934987 L52.9925928,4.36934809 C52.9323164,4.3462272 52.8839697,4.33435431 52.8469249,4.33435431 C52.8199261,4.33435431 52.7665564,4.34810187 52.6861879,4.37497209 L52.5756813,4.33435431 C52.5656352,4.33810364 52.5474267,4.33935342 52.5210558,4.33935342 C52.4902897,4.33935342 52.4689419,4.33247964 52.4551285,4.31935698 L52.3747601,4.40496676 L52.2994146,4.42433831 C52.2724158,4.44121031 52.2466728,4.45620764 52.2215576,4.46933031 C52.1964425,4.48307787 52.1757225,4.4924512 52.1587697,4.49932498 L52.0432401,4.44433476 L51.9930097,4.35934987 L51.9980328,4.25436853 L52.033194,4.18938009 L52.0984934,4.14001387 L52.1286316,4.09002276 L52.203977,4.02440942 L52.2592304,4.01003698 L52.2893685,3.98504142 L52.3496449,3.92942631 L52.3546679,3.91942809 L52.364714,3.90505564 L52.3747601,3.89443253 C52.3778994,3.89130809 52.380411,3.88755876 52.3822946,3.8850592 C52.3841782,3.88130987 52.3885734,3.87631076 52.3948522,3.86943698 L52.4249904,3.85506453 L52.5756813,3.73446098 L52.5907504,3.70946542 C52.6478873,3.65322542 52.691211,3.62323076 52.7213491,3.62010631 L52.7464643,3.58448764 L52.7565104,3.55449298 L52.8167867,3.49512853 L52.8519479,3.44013831 L52.9172473,3.4295152 L52.9524085,3.36015253 C52.9756401,3.35327876 52.9894534,3.34015609 52.9925928,3.31953476 C53.0258704,3.28016676 53.0610316,3.2551712 53.0980764,3.24454809 L53.1030994,3.21955253 L53.1784449,3.17456053 L53.2588134,3.0695792 L53.2939746,3.05020764 C53.2776497,3.05020764 53.2638364,3.05208231 53.2537904,3.05458187 L53.4195504,2.92960409 L53.4496885,2.87023964 L53.5099649,2.82962187 L53.5903334,2.70464409 L53.6656788,2.65527787 L53.6807479,2.62465831 L53.5903334,2.62465831 L53.525034,2.64465476 L53.4346194,2.63028231 L53.354251,2.65527787 L53.3040207,2.63028231 L53.1583528,2.67964853 C53.1181685,2.66652587 53.0698219,2.66027698 53.0126849,2.66027698 C52.9687334,2.66027698 52.9254097,2.6646512 52.8820861,2.67464942 L52.8268328,2.64965387 L52.7213491,2.6646512 L52.6811649,2.64965387 L52.5907504,2.67464942 L52.4199673,2.63965564 L52.2893685,2.64965387 L52.2140231,2.62465831 L52.0733782,2.59966276 L51.9729176,2.62465831 L51.8975722,2.55966987 L51.8523649,2.39532409 L51.9327334,2.28471876 L51.9879867,2.29534187 L52.0231479,2.27971964 L52.1185855,2.27034631 L52.193931,2.29534187 L52.2692764,2.29534187 L52.3245297,2.32971076 L52.4551285,2.32971076 L52.5210558,2.35033209 L52.6108425,2.32971076 L52.6811649,2.35033209 C52.701257,2.34345831 52.7232328,2.33970898 52.7464643,2.33970898 C52.7665564,2.33970898 52.7866485,2.34345831 52.8067407,2.35033209 L52.8017176,2.33970898 L52.8871091,2.35033209 L53.1131455,2.35033209 L53.4095043,2.33470987 L53.4396425,2.34533298 L53.4898728,2.32471164 L53.5953564,2.32471164 L53.7768134,2.28471876 L53.8666001,2.27034631 L53.9419455,2.27971964 L54.0474291,2.24535076 L54.1328207,2.24972498 C54.1560522,2.24660053 54.1761443,2.24472587 54.193097,2.2428512 C54.2100497,2.24097653 54.2232352,2.24035164 54.2332813,2.24035164 C54.3475552,2.24035164 54.4090873,2.31658809 54.4191334,2.46968587 L54.3287188,2.51967698 L54.2784885,2.56966809 L54.2031431,2.59466364 L54.0424061,2.74026276 L54.0072449,2.74963609 L53.9017613,2.87961298 C53.8446243,2.89710987 53.7962776,2.92647964 53.7560934,2.97022187 L53.7360013,3.03458542 L53.6556328,3.10519787 L53.5601952,3.23954898 L53.4999188,3.26454453 L53.2889516,3.50950098 L53.2136061,3.54012053 L53.1533297,3.62010631 L53.1231916,3.62947964 C53.1062388,3.64635164 53.0886582,3.66447342 53.0704497,3.68446987 C53.0516134,3.7050912 53.0308934,3.72321298 53.0076619,3.73946009 L52.9624546,3.81444676 L52.8519479,3.89943164 L52.7615334,4.00441298 L52.696234,4.0594032 L52.691211,4.07440053 L52.861994,4.05440409 L52.9122243,4.03503253 L53.0378001,4.02440942 L53.0880304,4.04940498 L53.3442049,4.02940853 L53.5853104,4.06940142 C53.6192158,4.06315253 53.6393079,4.0594032 53.6462146,4.0594032 C53.6656788,4.0594032 53.685771,4.0650272 53.7058631,4.07440053 L53.7768134,4.03503253 L53.8816691,4.07440053 L53.9570146,4.05440409 L54.0574752,4.06940142 L54.0976594,4.06940142 C54.1114728,4.05627876 54.1365879,4.04440587 54.1730049,4.03503253 C54.1962364,4.00441298 54.2182122,3.9862912 54.2383043,3.97941742 L54.2583964,3.93942453 L54.2684425,3.92942631 L54.2684425,3.89443253 L54.3437879,3.78007787 L54.4844328,3.79445031 C54.5447091,3.87443609 54.5748473,3.94442364 54.5748473,4.00441298" id="Fill-24" fill="#AAAAAA"></path>
                    <path d="M62.0437794,2.72532791 C62.0437794,2.79031636 62.0287104,2.83780791 61.9985722,2.86780258 L61.8478813,3.05464436 L61.802674,3.17524791 L61.6745867,3.21211636 L61.636914,3.28022924 L61.4410158,3.32522124 L61.2903249,3.32522124 L60.9964776,3.28710302 L60.8834594,3.33271991 L60.7403031,3.28710302 L60.5368704,3.32522124 L60.4841285,3.26460702 L60.4238522,3.28022924 C60.3736219,3.28960258 60.315857,3.29460169 60.2511855,3.29460169 L60.1074013,3.27273058 L59.8593891,3.25773324 L59.6703976,3.27273058 C59.5799831,3.23711191 59.5071491,3.22023991 59.4518958,3.22023991 C59.4117116,3.22023991 59.3313431,3.23961147 59.2107904,3.28022924 L59.0450304,3.22023991 C59.0299613,3.22523902 59.0023346,3.22773858 58.9621504,3.22773858 C58.917571,3.22773858 58.8842934,3.21774036 58.8648291,3.19774391 L58.7436485,3.32522124 L58.6306304,3.35521591 C58.5904461,3.38021147 58.5515176,3.40270747 58.5138449,3.42207902 C58.4761722,3.44207547 58.4447782,3.45769769 58.420291,3.46707102 L58.2463685,3.38521058 L58.1710231,3.25773324 L58.1785576,3.10026124 L58.2312994,3.00215369 L58.3292485,2.92716702 L58.3744558,2.85218036 L58.487474,2.75532258 L58.570354,2.73282658 L58.6155613,2.69470836 L58.7059758,2.61222302 L58.7135104,2.59785058 L58.7285794,2.57535458 L58.7436485,2.55973236 C58.7486716,2.55535813 58.7524388,2.55035902 58.7549504,2.54535991 C58.7574619,2.5403608 58.7637407,2.53223724 58.7737867,2.52286391 L58.818994,2.50036791 L59.0450304,2.32039991 L59.067634,2.28290658 C59.1530255,2.1972968 59.2183249,2.15292969 59.2635322,2.14730569 L59.3012049,2.09481502 L59.316274,2.05044791 L59.4066885,1.95983902 L59.4594304,1.87797858 L59.5573794,1.86235636 L59.6101213,1.75737502 C59.6452825,1.74800169 59.6653746,1.72738036 59.6703976,1.69738569 C59.7206279,1.63802124 59.7733697,1.59990302 59.8286231,1.58553058 L59.8361576,1.54741236 L59.9491758,1.48054924 L60.0697285,1.32307724 L60.1224704,1.29308258 C60.0973552,1.29308258 60.0772631,1.29558213 60.062194,1.30058124 L60.310834,1.11311458 L60.3560413,1.02250569 L60.4464558,0.963141244 L60.5670085,0.775674578 L60.6800267,0.700687911 L60.7026304,0.655071022 L60.5670085,0.655071022 L60.4690594,0.685065689 L60.3334376,0.662569689 L60.2128849,0.700687911 L60.1375394,0.662569689 L59.9190376,0.737556356 C59.8593891,0.7181848 59.7859273,0.707561689 59.7005358,0.707561689 C59.6352364,0.707561689 59.569937,0.715060356 59.5046376,0.730682578 L59.4217576,0.693189244 L59.2635322,0.715060356 L59.2032558,0.693189244 L59.067634,0.730682578 L58.8114594,0.678191911 L58.6155613,0.693189244 L58.5025431,0.655071022 L58.2915758,0.618202578 L58.1408849,0.655071022 L58.0278667,0.557588356 L57.9600558,0.310757244 L58.0806085,0.145161689 L58.1634885,0.160783911 L58.2162304,0.137663022 L58.3593867,0.123290578 L58.4730328,0.160783911 L58.5854231,0.160783911 L58.6683031,0.212649689 L58.8648291,0.212649689 L58.9621504,0.242644356 L59.0977722,0.212649689 L59.2032558,0.242644356 C59.233394,0.233271022 59.2660437,0.228271911 59.3012049,0.228271911 C59.3313431,0.228271911 59.3621091,0.233271022 59.3916194,0.242644356 L59.3840849,0.228271911 L59.5121722,0.242644356 L59.8512267,0.242644356 L60.2957649,0.220148356 L60.3409722,0.235770578 L60.4163176,0.205775911 L60.5745431,0.205775911 L60.8457867,0.145161689 L60.9814085,0.123290578 L61.0944267,0.137663022 L61.2526522,0.0851723556 L61.3807394,0.0926710222 C61.4159007,0.0876719111 61.4460388,0.0839225778 61.471154,0.0820479111 C61.4962691,0.0795483556 61.5163613,0.0782985778 61.5314304,0.0782985778 C61.7022134,0.0782985778 61.7951394,0.192653244 61.8102085,0.422612356 L61.6745867,0.498223911 L61.5992413,0.573210578 L61.4862231,0.610079022 L61.2457455,0.828165244 L61.1930037,0.842537689 L61.0341504,1.03812791 C60.9487588,1.06312347 60.8759249,1.10811547 60.8156485,1.17310391 L60.7855104,1.27058658 L60.6649576,1.37556791 L60.5218013,1.57740702 L60.4313867,1.61552524 L60.1149358,1.98295991 L60.0019176,2.02795191 L59.9115031,2.14730569 L59.8662958,2.16292791 C59.8411807,2.18792347 59.8148097,2.21541858 59.7871831,2.24478836 C59.7595564,2.27478302 59.7281625,2.30227813 59.6930013,2.32727369 L59.6251904,2.44037858 L59.4594304,2.56785591 L59.3238085,2.72532791 L59.2258594,2.80781324 L59.2183249,2.83030924 L59.4744994,2.79968969 L59.5498449,2.76969502 L59.7382085,2.75532258 L59.813554,2.79219102 L60.1978158,2.76282124 L60.559474,2.82218569 C60.6097043,2.81281236 60.6398425,2.80781324 60.6498885,2.80781324 C60.6800267,2.80781324 60.7101649,2.81531191 60.7403031,2.83030924 L60.8457867,2.76969502 L61.0040122,2.83030924 L61.1170304,2.79968969 L61.2677213,2.82218569 L61.3279976,2.82218569 C61.3480897,2.80281413 61.3857625,2.78531724 61.4410158,2.76969502 C61.476177,2.72532791 61.5088267,2.6978328 61.5389649,2.68720969 L61.5691031,2.62784524 L61.5841722,2.61222302 L61.5841722,2.55973236 L61.6971904,2.38788791 L61.9081576,2.40975902 C61.9985722,2.53036258 62.0437794,2.63471902 62.0437794,2.72532791" id="Fill-28" fill="#AAAAAA"></path>
                </g>
            </g>
        </g>
    </g>
</svg>