<?xml version="1.0" encoding="UTF-8"?>
<svg width="205px" height="130px" viewBox="0 0 205 130" version="1.1" xmlns="http://www.w3.org/2000/svg" xmlns:xlink="http://www.w3.org/1999/xlink">
    <!-- Generator: Sketch 44.1 (41455) - http://www.bohemiancoding.com/sketch -->
    <title>Group 2</title>
    <desc>Created with Sketch.</desc>
    <defs>
        <path d="M31.209015,81.4315895 C11.7296344,81.4315895 0.00020162903,70.4015951 0.00020162903,40.8768899 C0.00020162903,10.9479583 9.77652119,0.322190419 31.209015,0.322190419 C48.5228998,0.322190419 78.4990877,24.9833768 78.4990877,40.8768899 C78.4990877,57.4690412 52.6408367,81.4315895 31.209015,81.4315895 Z" id="path-1"></path>
    </defs>
    <g id="404" stroke="none" stroke-width="1" fill="none" fill-rule="evenodd">
        <g transform="translate(-86.000000, -196.000000)" id="Group-2">
            <g transform="translate(77.000000, 181.000000)">
                <g id="图案" transform="translate(9.000000, 16.000000)">
                    <path d="M66,0.5 L66,9.5" id="Line" stroke="#F9D86B" stroke-width="2" stroke-linecap="round" stroke-linejoin="round"></path>
                    <path d="M61.5,5 L70.5,5" id="Line" stroke="#F9D86B" stroke-width="2" stroke-linecap="round"></path>
                    <g id="Group" transform="translate(40.000000, 25.000000)" stroke="#A9DEFF" stroke-width="1.80000007" stroke-linecap="round">
                        <path d="M3,0 L3,6" id="Line-Copy-2" stroke-linejoin="round"></path>
                        <path d="M0,3 L6,3" id="Line-Copy"></path>
                    </g>
                    <circle id="Oval-5" stroke="#F9D86B" cx="88.5" cy="21.5" r="3.5"></circle>
                    <g id="Group-4" transform="translate(0.000000, 39.000000)">
                        <path d="M139.47907,17.0790698 C139.47907,17.0790698 139.641189,17.0790698 139.847076,17.0790698 L162.539571,17.0790698 C162.742815,17.0790698 162.907577,17.2363787 162.907577,17.4487473 L162.907577,45.947486 C162.907577,46.1516532 163.075523,46.3171635 163.262865,46.3171635 L175.835314,46.3171635 C176.031535,46.3171635 176.190603,46.1572011 176.190603,45.9650724 L176.190603,32.4256487 C176.190603,32.2311941 176.351315,32.0735576 176.54587,32.0735576 L197.337246,32.0735576 C197.533454,32.0735576 197.692512,32.2355986 197.692512,32.4302239 L197.692512,46.145584 C197.692512,46.3425653 197.859442,46.5022503 198.062897,46.5022503 L200.783103,46.5022503 C200.987661,46.5022503 201.153488,46.6614569 201.153488,46.8719608 L201.153488,67.433064 C201.153488,67.6372495 200.999211,67.8027745 200.786562,67.8027745 L198.321761,67.8027745 C198.119113,67.8027745 197.954834,67.9577238 197.954834,68.1718169 L197.954834,81.2309575 C197.954834,81.4347741 197.789241,81.6 197.588777,81.6 L176.165829,81.6 C175.963661,81.6 175.799772,81.4443049 175.799772,81.2433696 L175.799772,68.0929932 C175.799772,67.8960316 175.638058,67.7363628 175.44078,67.7363628 L139.528327,67.7363628 L139.528327,17.4964314" id="Path-3" fill="#F9D86B"></path>
                        <rect id="Rectangle-3" fill="#FFAC00" x="139.47907" y="17.0790698" width="12.3348837" height="50.2883721"></rect>
                        <path d="M166.315099,31.2901978 C166.315099,36.2246521 166.315099,45.0245033 166.315099,45.0245033 C166.315099,45.2143915 166.466611,45.3683263 166.651781,45.3683263 L179.066601,45.3683263 C179.252545,45.3683263 179.403283,45.2180014 179.403283,45.0232928 L179.403283,31.4697539 C179.403283,31.2791971 179.555708,31.1247204 179.74035,31.1247204 L200.252724,31.1247204 C200.438881,31.1247204 200.589791,31.2769987 200.589791,31.4671553 L200.589791,45.2109781 C200.589791,45.4000997 200.740724,45.5534131 200.929243,45.5534131 L203.660549,45.5534131 C203.848022,45.5534131 204,45.7066584 204,45.8966209 L204,66.5107295 C204,66.7002779 203.847985,66.8539373 203.662709,66.8539373 L201.185556,66.8539373 C200.999276,66.8539373 200.848266,67.0088866 200.848266,67.1949942 L200.848266,80.3101059 C200.848266,80.4984664 200.697207,80.6511628 200.509748,80.6511628 L179.356702,80.6511628 C179.169744,80.6511628 179.018184,80.4954676 179.018184,80.3084642 L179.018184,67.1302241 C179.018184,66.9409569 178.866609,66.7875256 178.681582,66.7875256 L172.199078,66.7875256 M161.871979,66.7875256 L143.278788,66.7875256 L143.278788,16.5475942 C143.247997,16.2828189 143.383771,16.1302326 143.565486,16.1302326 L165.979865,16.1302326 C166.16501,16.1302326 166.315099,16.2820901 166.315099,16.4731135 C166.315099,16.4731135 166.315099,20.6893413 166.315099,24.9903312" id="Path-3" stroke="#222222" stroke-width="2" stroke-linecap="round"></path>
                        <rect id="Rectangle-4" fill="#222222" x="164.148837" y="65.4697674" width="5.69302326" height="1.89767442" rx="0.948837209"></rect>
                        <path d="M0,17.0790698 C0,17.0790698 0.162118865,17.0790698 0.368005896,17.0790698 L23.0605009,17.0790698 C23.263745,17.0790698 23.4285068,17.2363787 23.4285068,17.4487473 L23.4285068,45.947486 C23.4285068,46.1516532 23.5964534,46.3171635 23.7837957,46.3171635 L36.3562447,46.3171635 C36.5524653,46.3171635 36.7115336,46.1572011 36.7115336,45.9650724 L36.7115336,32.4256487 C36.7115336,32.2311941 36.8722454,32.0735576 37.0667998,32.0735576 L57.8581763,32.0735576 C58.0543844,32.0735576 58.2134425,32.2355986 58.2134425,32.4302239 L58.2134425,46.145584 C58.2134425,46.3425653 58.3803725,46.5022503 58.5838275,46.5022503 L61.3040335,46.5022503 C61.5085916,46.5022503 61.6744186,46.6614569 61.6744186,46.8719608 L61.6744186,67.433064 C61.6744186,67.6372495 61.5201409,67.8027745 61.3074923,67.8027745 L58.842691,67.8027745 C58.6400432,67.8027745 58.4757647,67.9577238 58.4757647,68.1718169 L58.4757647,81.2309575 C58.4757647,81.4347741 58.310171,81.6 58.1097068,81.6 L36.6867597,81.6 C36.4845915,81.6 36.3207017,81.4443049 36.3207017,81.2433696 L36.3207017,68.0929932 C36.3207017,67.8960316 36.1589881,67.7363628 35.9617105,67.7363628 L0.0492575397,67.7363628 L0.0492575397,17.4964314" id="Path-3" fill="#F9D86B"></path>
                        <path d="M0,17.6438318 C0,17.3319223 0.257631577,17.0790698 0.562056734,17.0790698 L12.3348837,17.0790698 L12.3348837,67.3674419 L0.562056734,67.3674419 C0.251641371,67.3674419 0,67.120584 0,66.8026799 L0,17.6438318 Z" id="Path" fill="#FFAC00"></path>
                        <path d="M56.1558709,31.1841304 L60.769926,31.1841304 C60.9580066,31.1841304 61.110476,31.336226 61.110476,31.5261546 L61.110476,45.2534908 C61.110476,45.4423856 61.257019,45.595515 61.4499518,45.595515 L64.1814545,45.595515 C64.3689417,45.595515 64.5209302,45.7545306 64.5209302,45.9383111 L64.5209302,66.5276918 C64.5209302,66.7170128 64.3689046,66.8704879 64.1836152,66.8704879 L61.7062841,66.8704879 C61.5199901,66.8704879 61.368969,67.0252513 61.368969,67.2111357 L61.368969,80.310515 C61.368969,80.4986496 61.2178999,80.6511628 61.0260459,80.6511628 L39.88024,80.6511628 C39.6908488,80.6511628 39.5373169,80.4956544 39.5373169,80.3088753 L39.5373169,67.1464433 C39.5373169,66.9574032 39.3857307,66.8041559 39.1950277,66.8041559 L4.32833925,66.8041559 C4.03397677,66.8041559 3.79534884,66.5635811 3.79534884,66.2661735 L3.79534884,57.3548469 M3.79534884,45.7371274 L3.79534884,16.6244904 C3.79534884,16.2807128 3.94246477,16.1295956 4.12990139,16.1302346 L26.4987646,16.2064889 C26.6835328,16.2071188 26.8333171,16.3647496 26.8333171,16.5559371 L26.8333171,45.0623425 C26.8333171,45.2547076 26.9803142,45.4106503 27.1700239,45.4106503 L39.5857368,45.4106503 C39.7716948,45.4106503 39.9224435,45.2605057 39.9224435,45.0660306 L39.9224435,31.52875 C39.9224435,31.3384219 40.0772728,31.1841304 40.262243,31.1841304 L50.8525858,31.1841304" id="Path-3" stroke="#222222" stroke-width="2" stroke-linecap="round"></path>
                        <path d="M3.8841865,47.4418605 C4.35915113,47.4418605 4.74418605,47.8939611 4.74418605,48.4655757 L4.74418605,54.0088429 C4.74418605,54.5742252 4.36016331,55.0325581 3.8841865,55.0325581 L3.70651117,55.0325581 C3.23154654,55.0325581 2.84651163,54.5804575 2.84651163,54.0088429 L2.84651163,48.4655757 C2.84651163,47.9001934 3.23053436,47.4418605 3.70651117,47.4418605" id="Rectangle-4" fill="#222222"></path>
                        <path d="M55.5069767,14.2325581 L61.2,14.2325581" id="Line" stroke="#222222" stroke-width="2" stroke-linecap="round"></path>
                        <path d="M69.2651163,0.474418605 L69.2651163,6.24597003" id="Line" stroke="#000000" stroke-width="2" stroke-linecap="round"></path>
                        <path d="M58.3534884,3.79534884 L62.3930172,7.8348777" id="Line-Copy-3" stroke="#222222" stroke-width="2" stroke-linecap="round"></path>
                        <g id="Group-3" transform="translate(60.725581, 6.641860)">
                            <g id="Path-6" transform="translate(0.097126, 1.051827)">
                                <mask id="mask-2" fill="white">
                                    <use xlink:href="#path-1"></use>
                                </mask>
                                <use id="Mask" fill="#F9D86B" xlink:href="#path-1"></use>
                                <path d="M26.2863529,-3.08407008 C26.2863529,-3.08407008 19.6269895,1.26322195 18.0555265,7.95610615 C16.4840634,14.6489903 15.9231177,12.6370148 14.5248279,36.6882401 C13.1265382,60.7394654 32.5131224,83.1986474 32.5131224,83.1986474 L-15.087811,85.3277656 L-32.6842584,-3.0813299 L7.92930106,-10.2688162 L26.2863529,-3.08407008 Z" fill="#FFAC00" mask="url(#mask-2)"></path>
                            </g>
                            <path d="M56.3740063,27.0848561 C54.0532561,25.3055857 52.6747857,24.4162873 49.9171726,23.0419172 C50.7344423,28.3905078 51.2996757,39.0162756 39.4116281,34.4033773 C38.2724241,33.9614229 38.7139916,33.1967611 39.1784105,33.3496935 C44.654655,35.1532175 50.9911833,37.016028 48.4526738,20.5013535 C48.3484988,19.5291887 48.0319412,13.3364384 45.4443687,12.7503099 C36.7346667,10.7776845 32.6563835,17.319417 32.6160577,17.2837104 C31.8236556,17.3012268 31.8236556,17.3012268 31.0184837,17.2965109 C22.2812257,17.2466563 16.2834342,21.8312587 16.4158372,28.760375 C16.5052261,33.4413182 15.1771629,38.7791294 12.9585715,43.9835458 C12.9585715,43.9835458 11.4396328,47.4848212 9.0214286,47.3965651 C7.38890555,47.3372786 6.73562749,45.5485762 7.17383459,44.3736244 C7.43595233,43.6729651 8.58792618,43.7167563 8.40242748,42.59907 C8.21625667,41.4813837 5.90626009,40.562442 5.24222848,42.7230328 C4.66489736,44.6026861 3.8449393,47.7785592 6.23357121,49.6177898 C10.0268854,52.5383265 14.1992621,49.5807358 15.7262659,47.6916505 C21.8927538,40.0692857 25.1772907,42.5862695 25.85342,42.9062822 C30.2610306,44.9941121 28.360341,54.7696569 28.4678764,56.9127311 C28.5774282,59.1076812 31.8942258,60.517758 34.0099864,58.9978663 C35.6089046,57.8491893 37.0021612,50.1965075 38.8773112,48.3262861 C42.9361035,44.2766101 50.8372731,46.4412431 53.0746832,48.3262861 C56.3262874,51.0655945 56.7033337,54.7622461 58.6409887,56.3522037 C62.1466454,59.2289491 64.720776,55.9830101 65.1300829,54.0016265 C67.6296108,41.8909999 63.4068268,32.4772379 56.3740063,27.0848561" id="Fill-4" fill="#060102"></path>
                            <path d="M30.887492,31.0481624 C30.887492,28.3283916 28.6883914,26.1240097 25.9751367,26.1240097 C23.2625542,26.1240097 21.0634536,28.3283916 21.0634536,31.0481624 C21.0634536,33.7672595 23.2625542,35.9723151 25.9751367,35.9723151 C28.6883914,35.9723151 30.887492,33.7672595 30.887492,31.0481624" id="Fill-6" fill="#FFFFFF"></path>
                            <path d="M4.06753645,39.3903116 C4.06753645,36.0796888 4.19035301,33.0125372 4.43867896,30.176377 C6.36817048,8.13942446 15.8750188,0.0480745754 34.2224143,0.0480745754 C50.9516015,0.0480745754 79.9154801,23.9719663 79.9154801,39.3903116 C79.9154801,55.4864079 54.9304738,78.7325486 34.2224143,78.7325486 C19.9428387,78.7325486 9.97347652,72.5735113 5.99346698,57.0930813" id="Fill-1" stroke="#222222" stroke-width="2" stroke-linecap="round"></path>
                        </g>
                        <path d="M88.9695469,36.1295349 C88.9695469,35.2740806 88.2773031,34.5808559 87.4245783,34.5808559 C86.5711736,34.5808559 85.8789297,35.2740806 85.8789297,36.1295349 C85.8789297,36.9849891 86.5711736,37.6782138 87.4245783,37.6782138 C88.2773031,37.6782138 88.9695469,36.9849891 88.9695469,36.1295349" id="Fill-8" fill="#060102"></path>
                    </g>
                </g>
            </g>
        </g>
    </g>
</svg>