<?xml version="1.0" encoding="UTF-8"?>
<svg width="12px" height="13px" viewBox="0 0 12 13" version="1.1" xmlns="http://www.w3.org/2000/svg" xmlns:xlink="http://www.w3.org/1999/xlink">
    <!-- Generator: Sketch 44.1 (41455) - http://www.bohemiancoding.com/sketch -->
    <desc>Created with Sketch.</desc>
    <defs></defs>
    <g id="首页／频道／搜索" stroke="none" stroke-width="1" fill="none" fill-rule="evenodd" stroke-linecap="round" opacity="0.699999988" stroke-linejoin="round">
        <g id="搜索结果-有结果" transform="translate(-27.000000, -82.000000)" stroke="#9B9B9B">
            <g id="搜索" transform="translate(33.000000, 89.500000) rotate(-12.000000) translate(-33.000000, -89.500000) translate(28.000000, 83.000000)">
                <path d="M9.63350838,12.5 L7.64113448,9.49472049 C7.71335001,9.44849922 7.7843338,9.4004389 7.85402371,9.35060331 C8.33376319,9.00753935 8.75218803,8.58034898 9.08902859,8.0898464 C9.43038495,7.59276798 9.68795487,7.0306684 9.84064253,6.42521024 C9.94465776,6.01275466 10,5.58017756 10,5.13432731 C10,2.29871664 7.76142375,-3.73034936e-14 5,-3.73034936e-14 C2.23857625,-3.73034936e-14 -1.42108547e-13,2.29871664 -1.42108547e-13,5.13432731 C-1.42108547e-13,7.96993799 2.23857625,10.2686546 5,10.2686546 C5.588751,10.2686546 6.15373511,10.1641627 6.67832417,9.97225381" id="Oval"></path>
            </g>
        </g>
    </g>
</svg>
