<?xml version="1.0" encoding="UTF-8" standalone="no"?>
<svg width="16px" height="16px" viewBox="0 0 16 16" version="1.1" xmlns="http://www.w3.org/2000/svg" xmlns:xlink="http://www.w3.org/1999/xlink">
    <!-- Generator: Sketch 43.1 (39012) - http://www.bohemiancoding.com/sketch -->
    <title>爱奇艺@3x</title>
    <desc>Created with Sketch.</desc>
    <defs>
        <polygon id="path-1" points="14.9841 11.7724213 14.9841 4.59243287e-05 4.06575815e-21 4.59243287e-05 0 11.7724213 14.9841 11.7724213"></polygon>
    </defs>
    <g id="首页频道" stroke="none" stroke-width="1" fill="none" fill-rule="evenodd">
        <g id="图标整理" transform="translate(-105.000000, -333.000000)">
            <g id="Group-15" transform="translate(105.000000, 333.000000)">
                <g id="爱奇艺" transform="translate(1.000000, 2.000000)">
                    <mask id="mask-2" fill="white">
                        <use xlink:href="#path-1"></use>
                    </mask>
                    <g id="Clip-2"></g>
                    <path d="M1.4122875,3.58905714 C1.4120625,4.29341429 1.4120625,4.29341429 0.7447875,4.29341429 C0.0043875,4.29341429 0.0043875,4.29341429 0.0052125,3.57434286 C0.0058125,2.88827143 0.0058125,2.88827143 0.7364625,2.88927143 C1.4127375,2.89041429 1.4127375,2.89041429 1.4122875,3.58905714 L1.4122875,3.58905714 Z M1.4116875,6.77377143 C1.4110125,7.33505714 1.4020875,7.89677143 1.4146125,8.45791429 C1.4214375,8.77141429 1.2818625,8.8867 0.9562125,8.89841429 C0.0054375,8.93212857 0.0054375,8.94105714 0.0054375,8.02734286 C0.0054375,7.07698571 0.0166875,6.12677143 0.0001875,5.17734286 C-0.0060375,4.82355714 0.1283625,4.69562857 0.5012625,4.6942 C1.5805875,4.69105714 1.4077125,4.62534286 1.4118375,5.52162857 C1.4139375,5.93884286 1.4120625,6.35612857 1.4116875,6.77355714 L1.4116875,6.77377143 Z M8.2535625,5.94241429 C8.2535625,6.79284286 8.2418625,7.64384286 8.2602375,8.49398571 C8.2664625,8.77634286 8.1637125,8.87698571 7.8768375,8.89641429 C6.7616625,8.97241429 6.7622625,8.97855714 6.7622625,7.92612857 C6.7622625,6.4557 6.7616625,4.98505714 6.7622625,3.51427143 C6.7624875,2.93448571 6.8050125,2.89441429 7.4004375,2.88984286 C7.4912625,2.88927143 7.5833625,2.89855714 7.6733625,2.88848571 C8.1076875,2.84084286 8.2627125,3.01998571 8.2508625,3.43348571 C8.2262625,4.2692 8.2435125,5.10612857 8.2435125,5.94241429 L8.2535625,5.94241429 Z M14.9800125,5.9307 C14.9800125,6.75312857 14.9716875,7.57555714 14.9839875,8.39777143 C14.9891625,8.73348571 14.8837125,8.89498571 14.4939375,8.90112857 C13.5027375,8.91684286 13.5027375,8.93091429 13.5027375,7.97434286 C13.5025125,6.45927143 13.5137625,4.94462857 13.4947875,3.42991429 C13.4893875,3.0127 13.6443375,2.8752 14.0764875,2.88191429 C14.9779125,2.89577143 14.9781375,2.87855714 14.9779125,3.7232 L14.9779125,5.9307 L14.9800125,5.9307 Z M10.8429375,4.8557 C11.0345625,4.27555714 11.2045875,3.82834286 11.3268375,3.36941429 C11.4205875,3.0172 11.6060625,2.88134286 11.9960625,2.88248571 C13.1660625,2.88648571 13.0089375,2.94562857 12.6952125,3.78055714 C12.4198125,4.51327143 12.1889625,5.26462857 11.8568625,5.97355714 C11.5171125,6.69934286 11.6318625,7.44398571 11.5989375,8.1867 C11.5879125,8.43312857 11.7079125,8.75491429 11.3718375,8.87077143 C11.0099625,8.99577143 10.6249875,8.9182 10.2572625,8.83212857 C10.1666625,8.81091429 10.1418375,8.70612857 10.1302125,8.61741429 C10.1260125,8.58884286 10.1191875,8.55912857 10.1233125,8.53134286 C10.4064375,6.70034286 9.4472625,5.14341429 8.8921125,3.49841429 C8.7097875,2.9587 8.7402375,2.89541429 9.3291375,2.89041429 C9.4658625,2.88905714 9.6035625,2.90134286 9.7383375,2.88805714 C10.0641375,2.85612857 10.2410625,2.98684286 10.3291875,3.28884286 C10.4704125,3.77341429 10.6420875,4.24977143 10.8429375,4.8557 L10.8429375,4.8557 Z M4.4893875,5.9057 L4.4908125,5.9057 C4.4908125,5.28605714 4.4887125,4.66641429 4.4918625,4.04662857 C4.4929125,3.79062857 4.4491875,3.58727143 4.1052375,3.58648571 C3.7902375,3.5857 3.6748125,3.73805714 3.6751875,4.01627143 C3.6772875,5.2557 3.6758625,6.4952 3.6772875,7.73448571 C3.6772875,8.00648571 3.7606125,8.24005714 4.0960125,8.24084286 C4.4522625,8.24205714 4.4870625,7.98091429 4.4883375,7.72162857 C4.4912625,7.11641429 4.4893875,6.51127143 4.4893875,5.9057 L4.4893875,5.9057 Z M6.0312375,5.91427143 C6.0312375,6.49127143 6.0383625,7.06841429 6.0274875,7.6452 C6.0237375,7.84484286 5.9920875,8.04698571 5.9447625,8.24184286 C5.8847625,8.48948571 5.4799875,8.7557 6.0562125,8.93962857 C6.1910625,8.9827 6.1555875,9.2567 6.1000125,9.42498571 C6.0456375,9.59105714 5.8793625,9.6337 5.7312375,9.6232 C5.3029125,9.59205714 4.8295875,9.65377143 4.5654375,9.20198571 C4.4877375,9.06898571 4.3495875,9.06027143 4.2097875,9.05512857 C4.0583625,9.04955714 3.9058125,9.04855714 3.7566375,9.02777143 C2.3551875,8.8317 2.1922875,8.65177143 2.1920625,7.31248571 C2.1920625,6.1877 2.1889875,5.06248571 2.1939375,3.93748571 C2.1964875,3.3347 2.4339375,3.04998571 3.0385125,2.86462857 C3.7889625,2.6347 4.5322875,2.66627143 5.2699875,2.90534286 C5.7824625,3.07162857 6.0097875,3.37891429 6.0250125,3.9672 C6.0416625,4.61584286 6.0285375,5.26527143 6.0285375,5.91427143 L6.0312375,5.91427143 Z M7.6954125,0.0267714286 C9.3880875,-0.0732285714 11.2453875,0.119628571 13.0885125,0.401771429 C14.1781125,0.568414286 14.7025125,0.829342857 14.9326875,2.05791429 C14.9945625,2.38727143 14.8520625,2.52198571 14.5227375,2.51205714 C14.3101875,2.5057 14.0980875,2.47634286 13.8864375,2.4797 C13.6239375,2.48412857 13.4650125,2.38905714 13.3718625,2.14641429 C13.2464625,1.81705714 12.9655875,1.65434286 12.6093375,1.60927143 C10.4241375,1.33348571 8.2302375,1.1597 6.0266625,1.27255714 C4.7558625,1.33748571 3.4897875,1.49641429 2.2233375,1.62612857 C1.9228875,1.65691429 1.6535625,1.80212857 1.5585375,2.08948571 C1.4427375,2.43948571 1.1995875,2.51962857 0.8605875,2.48984286 C0.7093125,2.47691429 0.5572875,2.47277143 0.4054125,2.47755714 C0.1126875,2.48627143 0.0074625,2.3557 0.0091875,2.08112857 C0.0139875,1.32455714 0.5041875,0.6962 1.2716625,0.534128571 C3.3272625,0.0995571429 5.4130875,-0.0220857143 7.6954125,0.0267714286 Z M7.6771125,11.7541286 C5.4887625,11.7714143 3.5099625,11.6587 1.5499875,11.3100571 C0.5620875,11.1344857 -0.0154125,10.4989857 0.0070875,9.61427143 C0.0137625,9.36327143 0.1077375,9.23291429 0.3770625,9.2347 C0.5896125,9.23605714 0.8020875,9.23605714 1.0141875,9.23748571 C1.2614625,9.23927143 1.4416875,9.30355714 1.5183375,9.57041429 C1.6225125,9.93148571 1.9258125,10.0956286 2.2972875,10.1449857 C3.2277375,10.2684143 4.1591625,10.3811286 5.0983125,10.4327 C6.5827125,10.5148429 8.0664375,10.5475571 9.5516625,10.4390571 C10.6241625,10.3607 11.6953875,10.2793429 12.7570875,10.1061286 C13.0366875,10.0604857 13.2647625,9.93705714 13.3293375,9.67712857 C13.4302125,9.27162857 13.7074875,9.22277143 14.0781375,9.22634286 C15.0279375,9.23627143 15.0593625,9.26127143 14.8114875,10.1212 C14.6581125,10.6549143 14.3460375,11.0382714 13.7551875,11.2057 C12.8323125,11.4676286 11.8780875,11.5469857 10.9312125,11.6313429 C9.7858125,11.7332714 8.6333625,11.8084857 7.6771125,11.7543429 L7.6771125,11.7541286 Z" id="Fill-1" fill="#42BD56" mask="url(#mask-2)"></path>
                </g>
            </g>
        </g>
    </g>
</svg>